<?xml version="1.0" encoding="UTF-8"?>
<svg id="Layer_1" xmlns="http://www.w3.org/2000/svg" viewBox="0 0 40 38.15">
  <defs>
    <style>
      .cls-1 {
        fill: #e8e8e8;
      }
    </style>
  </defs>
  <path class="cls-1" d="M57.53,32.97c-.44-.93-1.22-1.66-2.19-2.02-.5-.18-1.02-.27-1.55-.26-.72,0-1.44.12-2.12.36-.44.15-.87.32-1.29.51-.22.1-.44.21-.66.29-.21.08-.41.15-.62.23h0c-.5-.84-1.61-1.34-3.09-1.34s-2.74.45-4.4,1.61c-.05.03-.11.02-.15-.03,0,0,0,0,0,0-.76-1.12-1.71-1.59-3.16-1.59-1.36,0-2.76.47-4.35,1.51-.05.03-.11.02-.14-.03-.02-.02-.02-.05-.01-.08l.3-1.39c.01-.06-.02-.11-.08-.12-.01,0-.03,0-.04,0-.81.17-2.34.3-3.35.3h-4.02s-.13,0-.17,0c-.18,0-.35.02-.52.05-.76.12-1.47.42-2.08.88-2.03,1.53-2.43,4.41-.9,6.44.79,1.05,2,1.71,3.32,1.82l-1.06,4.99s-.05.08-.1.08h-1.56s-.09.04-.1.08l-.06.31c-.01.06.03.11.08.12,0,0,.01,0,.02,0h7.37s.09-.03.1-.08l.16-.76,1.22-5.74c.21-.06.43-.12.64-.19.52-.16,1.03-.32,1.55-.5l-1.39,6.49-.13.66c-.01.06.03.11.08.12,0,0,.01,0,.02,0h5.62s.09-.03.1-.08l.32-1.46,1.74-8.13c.46-.19.93-.38,1.39-.57,1.39-.58,2.78-1.17,4.17-1.75,1.35-.57,2.71-1.14,4.1-1.61.15-.05.31-.1.46-.15.12-.03.25-.02.37.02.32.11.45.43.45.75,0,.3-.04.6-.12.9l-.39,1.86c-.16.77-.33,1.55-.49,2.32-.07.36-.15.71-.22,1.07-.07.34-.14.68-.21,1.01-.1.46-.22.99-.54,1.36-.31.35-.82.4-1.26.27-.08-.03-.16-.04-.24-.03-.18.04-.29.22-.25.4.01.04.03.09.06.12.12.14.25.26.41.36.15.1.3.18.46.24.69.31,1.44.47,2.2.46.63-.02,1.26-.15,1.85-.38,1.27-.49,2.37-1.33,3.17-2.43.83-1.12,1.4-2.42,1.66-3.79.21-1.16.16-2.4-.36-3.48ZM25.43,39.43c-2.16-.65-3.38-2.93-2.74-5.09.5-1.65,1.97-2.81,3.69-2.9.07,0,.15-.01.22-.01h1.35c.06,0,.1.05.1.1,0,0,0,.01,0,.02l-1.71,8.04c-.31-.02-.62-.08-.92-.17ZM32.65,38.48l-.21.06,1.16-5.48s.02-.04.03-.06c.02-.01.03-.03.05-.04l.05-.05.06-.05.05-.04.05-.04.05-.04.05-.04.05-.04.05-.04s.03-.02.05-.03l.05-.03.05-.03.05-.03.04-.03.05-.03.04-.02.05-.02.04-.02.05-.02s.03-.01.04-.02l.05-.02h.04s.03-.02.05-.03c.01,0,.02,0,.04-.01h.05s.02-.02.03-.02h.05s.03-.01.03-.01h.05s.03,0,.03,0h.07c.34,0,.57.21.57.52,0,.23-.03.45-.08.67l-.94,4.4c-.65.21-1.31.43-1.97.63h0ZM41.32,35.29l-.34.14.5-2.37s.01-.04.03-.05c.53-.53,1.07-.78,1.55-.78.39,0,.62.21.62.54,0,.13-.05.41-.13.83l-.18.84c-.68.28-1.37.57-2.06.85h0Z"/>
  <g>
    <path class="cls-1" d="M8.54,45.17c.06.01.09.07.08.13l-.08.31s-.05.08-.1.08H1.09s-.02,0-.02,0c-.06-.01-.09-.07-.08-.12l.08-.39h0l1.96-9.11,2.78-1.16c.96-.4,1.91-.79,2.63-1.08.36-.14.66-.26.87-.34l.06-.02c-.02.27-.06.54-.12.81l-2.31,10.78s0,.01,0,.02c0,.06.05.1.1.1h1.46s.02,0,.03,0Z"/>
    <path class="cls-1" d="M17.53,32.97c-.44-.93-1.22-1.66-2.19-2.02-.5-.18-1.02-.27-1.55-.26-.72,0-1.44.12-2.12.36-.44.15-.87.32-1.29.51-.22.1-.44.21-.66.29-.21.08-.41.15-.62.23h0c-.5-.84-1.61-1.34-3.09-1.34s-2.74.45-4.4,1.61c-.05.03-.11.02-.15-.03,0,0,0,0,0,0-.76-1.12-1.71-1.59-3.16-1.59-1.36,0-2.76.47-4.35,1.51-.05.03-.11.02-.14-.03-.02-.02-.02-.05-.01-.08l.3-1.39c.01-.06-.02-.11-.08-.12-.01,0-.03,0-.04,0-.81.17-2.34.3-3.35.3h-4.02s-.13,0-.17,0c-.18,0-.35.02-.52.05-.76.12-1.47.42-2.08.88-2.03,1.53-2.43,4.41-.9,6.44.79,1.05,2,1.71,3.32,1.82l-1.06,4.99s-.05.08-.1.08h-1.56s-.09.04-.1.08l-.06.31c-.01.06.03.11.08.12,0,0,.01,0,.02,0h7.37s.09-.03.1-.08l.16-.76,1.22-5.74c.21-.06.43-.12.64-.19.52-.16,1.03-.32,1.55-.5l-1.39,6.49-.13.66c-.01.06.03.11.08.12,0,0,.01,0,.02,0H-1.29s.09-.03.1-.08l.32-1.46,1.74-8.13c.46-.19.93-.38,1.39-.57,1.39-.58,2.78-1.17,4.17-1.75,1.35-.57,2.71-1.14,4.1-1.61.15-.05.31-.1.46-.15.12-.03.25-.02.37.02.32.11.45.43.45.75,0,.3-.04.6-.12.9l-.39,1.86c-.16.77-.33,1.55-.49,2.32-.07.36-.15.71-.22,1.07-.07.34-.14.68-.21,1.01-.1.46-.22.99-.54,1.36-.31.35-.82.4-1.26.27-.08-.03-.16-.04-.24-.03-.18.04-.29.22-.25.4.01.04.03.09.06.12.12.14.25.26.41.36.15.1.3.18.46.24.69.31,1.44.47,2.2.46.63-.02,1.26-.15,1.85-.38,1.27-.49,2.37-1.33,3.17-2.43.83-1.12,1.4-2.42,1.66-3.79.21-1.16.16-2.4-.36-3.48ZM-14.57,39.43c-2.16-.65-3.38-2.93-2.74-5.09.5-1.65,1.97-2.81,3.69-2.9.07,0,.15-.01.22-.01h1.35c.06,0,.1.05.1.1,0,0,0,.01,0,.02l-1.71,8.04c-.31-.02-.62-.08-.92-.17ZM-7.35,38.48l-.21.06,1.16-5.48s.02-.04.03-.06c.02-.01.03-.03.05-.04l.05-.05.06-.05.05-.04.05-.04.05-.04.05-.04.05-.04.05-.04s.03-.02.05-.03l.05-.03.05-.03.05-.03.04-.03.05-.03.04-.02.05-.02.04-.02.05-.02s.03-.01.04-.02l.05-.02h.04s.03-.02.05-.03c.01,0,.02,0,.04-.01h.05s.02-.02.03-.02h.05s.03-.01.03-.01h.05s.03,0,.03,0h.07c.34,0,.57.21.57.52,0,.23-.03.45-.08.67l-.94,4.4c-.65.21-1.31.43-1.97.63h0ZM1.32,35.29l-.34.14.5-2.37s.01-.04.03-.05c.53-.53,1.07-.78,1.55-.78.39,0,.62.21.62.54,0,.13-.05.41-.13.83l-.18.84c-.68.28-1.37.57-2.06.85h0Z"/>
  </g>
  <g>
    <path class="cls-1" d="M28.54,26.1c.06.01.09.07.08.13l-.08.31s-.05.08-.1.08h-7.35s-.02,0-.02,0c-.06-.01-.09-.07-.08-.12l.08-.39h0l1.96-9.11,2.78-1.16c.96-.4,1.91-.79,2.63-1.08.36-.14.66-.26.87-.34l.06-.02c-.02.27-.06.54-.12.81l-2.31,10.78s0,.01,0,.02c0,.06.05.1.1.1h1.46s.02,0,.03,0Z"/>
    <path class="cls-1" d="M37.53,13.89c-.44-.93-1.22-1.66-2.19-2.02-.5-.18-1.02-.27-1.55-.26-.72,0-1.44.12-2.12.36-.44.15-.87.32-1.29.51-.22.1-.44.21-.66.29-.21.08-.41.15-.62.23h0c-.5-.84-1.61-1.34-3.09-1.34s-2.74.45-4.4,1.61c-.05.03-.11.02-.15-.03,0,0,0,0,0,0-.76-1.12-1.71-1.59-3.16-1.59-1.36,0-2.76.47-4.35,1.51-.05.03-.11.02-.14-.03-.02-.02-.02-.05-.01-.08l.3-1.39c.01-.06-.02-.11-.08-.12-.01,0-.03,0-.04,0-.81.17-2.34.3-3.35.3h-4.02s-.13,0-.17,0c-.18,0-.35.02-.52.05-.76.12-1.47.42-2.08.88-2.03,1.53-2.43,4.41-.9,6.44.79,1.05,2,1.71,3.32,1.82l-1.06,4.99s-.05.08-.1.08h-1.56s-.09.04-.1.08l-.06.31c-.01.06.03.11.08.12,0,0,.01,0,.02,0h7.37s.09-.03.1-.08l.16-.76,1.22-5.74c.21-.06.43-.12.64-.19.52-.16,1.03-.32,1.55-.5l-1.39,6.49-.13.66c-.01.06.03.11.08.12,0,0,.01,0,.02,0h5.62s.09-.03.1-.08l.32-1.46,1.74-8.13c.46-.19.93-.38,1.39-.57,1.39-.58,2.78-1.17,4.17-1.75,1.35-.57,2.71-1.14,4.1-1.61.15-.05.31-.1.46-.15.12-.03.25-.02.37.02.32.11.45.43.45.75,0,.3-.04.6-.12.9l-.39,1.86c-.16.77-.33,1.55-.49,2.32-.07.36-.15.71-.22,1.07-.07.34-.14.68-.21,1.01-.1.46-.22.99-.54,1.36-.31.35-.82.4-1.26.27-.08-.03-.16-.04-.24-.03-.18.04-.29.22-.25.4.01.04.03.09.06.12.12.14.25.26.41.36.15.1.3.18.46.24.69.31,1.44.47,2.2.46.63-.02,1.26-.15,1.85-.38,1.27-.49,2.37-1.33,3.17-2.43.83-1.12,1.4-2.42,1.66-3.79.21-1.16.16-2.4-.36-3.48ZM5.43,20.36c-2.16-.65-3.38-2.93-2.74-5.09.5-1.65,1.97-2.81,3.69-2.9.07,0,.15-.01.22-.01h1.35c.06,0,.1.05.1.1,0,0,0,.01,0,.02l-1.71,8.04c-.31-.02-.62-.08-.92-.17ZM12.65,19.4l-.21.06,1.16-5.48s.02-.04.03-.06c.02-.01.03-.03.05-.04l.05-.05.06-.05.05-.04.05-.04.05-.04.05-.04.05-.04.05-.04s.03-.02.05-.03l.05-.03.05-.03.05-.03.04-.03.05-.03.04-.02.05-.02.04-.02.05-.02s.03-.01.04-.02l.05-.02h.04s.03-.02.05-.03c.01,0,.02,0,.04-.01h.05s.02-.02.03-.02h.05s.03-.01.03-.01h.05s.03,0,.03,0h.07c.34,0,.57.21.57.52,0,.23-.03.45-.08.67l-.94,4.4c-.65.21-1.31.43-1.97.63h0ZM21.32,16.22l-.34.14.5-2.37s.01-.04.03-.05c.53-.53,1.07-.78,1.55-.78.39,0,.62.21.62.54,0,.13-.05.41-.13.83l-.18.84c-.68.28-1.37.57-2.06.85h0Z"/>
  </g>
  <path class="cls-1" d="M57.53-5.18c-.44-.93-1.22-1.66-2.19-2.02-.5-.18-1.02-.27-1.55-.26-.72,0-1.44.12-2.12.36-.44.15-.87.32-1.29.51-.22.1-.44.21-.66.29-.21.08-.41.15-.62.23h0c-.5-.84-1.61-1.34-3.09-1.34s-2.74.45-4.4,1.61c-.05.03-.11.02-.15-.03,0,0,0,0,0,0-.76-1.12-1.71-1.59-3.16-1.59-1.36,0-2.76.47-4.35,1.51-.05.03-.11.02-.14-.03-.02-.02-.02-.05-.01-.08l.3-1.39c.01-.06-.02-.11-.08-.12-.01,0-.03,0-.04,0-.81.17-2.34.3-3.35.3h-4.02s-.13,0-.17,0c-.18,0-.35.02-.52.05-.76.12-1.47.42-2.08.88-2.03,1.53-2.43,4.41-.9,6.44.79,1.05,2,1.71,3.32,1.82l-1.06,4.99s-.05.08-.1.08h-1.56s-.09.04-.1.08l-.06.31c-.01.06.03.11.08.12,0,0,.01,0,.02,0h7.37s.09-.03.1-.08l.16-.76,1.22-5.74c.21-.06.43-.12.64-.19.52-.16,1.03-.32,1.55-.5l-1.39,6.49-.13.66c-.01.06.03.11.08.12,0,0,.01,0,.02,0h5.62s.09-.03.1-.08l.32-1.46,1.74-8.13c.46-.19.93-.38,1.39-.57,1.39-.58,2.78-1.17,4.17-1.75,1.35-.57,2.71-1.14,4.1-1.61.15-.05.31-.1.46-.15.12-.03.25-.02.37.02.32.11.45.43.45.75,0,.3-.04.6-.12.9l-.39,1.86c-.16.77-.33,1.55-.49,2.32-.07.36-.15.71-.22,1.07-.07.34-.14.68-.21,1.01-.1.46-.22.99-.54,1.36-.31.35-.82.4-1.26.27-.08-.03-.16-.04-.24-.03-.18.04-.29.22-.25.4.01.04.03.09.06.12.12.14.25.26.41.36.15.1.3.18.46.24.69.31,1.44.47,2.2.46.63-.02,1.26-.15,1.85-.38,1.27-.49,2.37-1.33,3.17-2.43.83-1.12,1.4-2.42,1.66-3.79.21-1.16.16-2.4-.36-3.48ZM25.43,1.28c-2.16-.65-3.38-2.93-2.74-5.09.5-1.65,1.97-2.81,3.69-2.9.07,0,.15-.01.22-.01h1.35c.06,0,.1.05.1.1,0,0,0,.01,0,.02l-1.71,8.04c-.31-.02-.62-.08-.92-.17ZM32.65.33l-.21.06,1.16-5.48s.02-.04.03-.06c.02-.01.03-.03.05-.04l.05-.05.06-.05.05-.04.05-.04.05-.04.05-.04.05-.04.05-.04s.03-.02.05-.03l.05-.03.05-.03.05-.03.04-.03.05-.03.04-.02.05-.02.04-.02.05-.02s.03-.01.04-.02l.05-.02h.04s.03-.02.05-.03c.01,0,.02,0,.04-.01h.05s.02-.02.03-.02h.05s.03-.01.03-.01h.05s.03,0,.03,0h.07c.34,0,.57.21.57.52,0,.23-.03.45-.08.67l-.94,4.4c-.65.21-1.31.43-1.97.63h0ZM41.32-2.86l-.34.14.5-2.37s.01-.04.03-.05c.53-.53,1.07-.78,1.55-.78.39,0,.62.21.62.54,0,.13-.05.41-.13.83l-.18.84c-.68.28-1.37.57-2.06.85h0Z"/>
  <g>
    <path class="cls-1" d="M8.54,7.03c.06.01.09.07.08.13l-.08.31s-.05.08-.1.08H1.09s-.02,0-.02,0c-.06-.01-.09-.07-.08-.12l.08-.39h0L3.03-2.09l2.78-1.16c.96-.4,1.91-.79,2.63-1.08.36-.14.66-.26.87-.34l.06-.02c-.02.27-.06.54-.12.81l-2.31,10.78s0,.01,0,.02c0,.06.05.1.1.1h1.46s.02,0,.03,0Z"/>
    <path class="cls-1" d="M17.53-5.18c-.44-.93-1.22-1.66-2.19-2.02-.5-.18-1.02-.27-1.55-.26-.72,0-1.44.12-2.12.36-.44.15-.87.32-1.29.51-.22.1-.44.21-.66.29-.21.08-.41.15-.62.23h0c-.5-.84-1.61-1.34-3.09-1.34s-2.74.45-4.4,1.61c-.05.03-.11.02-.15-.03,0,0,0,0,0,0-.76-1.12-1.71-1.59-3.16-1.59-1.36,0-2.76.47-4.35,1.51-.05.03-.11.02-.14-.03-.02-.02-.02-.05-.01-.08l.3-1.39c.01-.06-.02-.11-.08-.12-.01,0-.03,0-.04,0-.81.17-2.34.3-3.35.3h-4.02s-.13,0-.17,0c-.18,0-.35.02-.52.05-.76.12-1.47.42-2.08.88-2.03,1.53-2.43,4.41-.9,6.44.79,1.05,2,1.71,3.32,1.82l-1.06,4.99s-.05.08-.1.08h-1.56s-.09.04-.1.08l-.06.31c-.01.06.03.11.08.12,0,0,.01,0,.02,0h7.37s.09-.03.1-.08l.16-.76L-7.69.96c.21-.06.43-.12.64-.19.52-.16,1.03-.32,1.55-.5l-1.39,6.49-.13.66c-.01.06.03.11.08.12,0,0,.01,0,.02,0H-1.29s.09-.03.1-.08l.32-1.46L.86-2.13c.46-.19.93-.38,1.39-.57,1.39-.58,2.78-1.17,4.17-1.75,1.35-.57,2.71-1.14,4.1-1.61.15-.05.31-.1.46-.15.12-.03.25-.02.37.02.32.11.45.43.45.75,0,.3-.04.6-.12.9l-.39,1.86c-.16.77-.33,1.55-.49,2.32-.07.36-.15.71-.22,1.07-.07.34-.14.68-.21,1.01-.1.46-.22.99-.54,1.36-.31.35-.82.4-1.26.27-.08-.03-.16-.04-.24-.03-.18.04-.29.22-.25.4.01.04.03.09.06.12.12.14.25.26.41.36.15.1.3.18.46.24.69.31,1.44.47,2.2.46.63-.02,1.26-.15,1.85-.38,1.27-.49,2.37-1.33,3.17-2.43.83-1.12,1.4-2.42,1.66-3.79.21-1.16.16-2.4-.36-3.48ZM-14.57,1.28c-2.16-.65-3.38-2.93-2.74-5.09.5-1.65,1.97-2.81,3.69-2.9.07,0,.15-.01.22-.01h1.35c.06,0,.1.05.1.1,0,0,0,.01,0,.02l-1.71,8.04c-.31-.02-.62-.08-.92-.17ZM-7.35.33l-.21.06,1.16-5.48s.02-.04.03-.06c.02-.01.03-.03.05-.04l.05-.05.06-.05.05-.04.05-.04.05-.04.05-.04.05-.04.05-.04s.03-.02.05-.03l.05-.03.05-.03.05-.03.04-.03.05-.03.04-.02.05-.02.04-.02.05-.02s.03-.01.04-.02l.05-.02h.04s.03-.02.05-.03c.01,0,.02,0,.04-.01h.05s.02-.02.03-.02h.05s.03-.01.03-.01h.05s.03,0,.03,0h.07c.34,0,.57.21.57.52,0,.23-.03.45-.08.67L-5.38-.3c-.65.21-1.31.43-1.97.63h0ZM1.32-2.86l-.34.14.5-2.37s.01-.04.03-.05c.53-.53,1.07-.78,1.55-.78.39,0,.62.21.62.54,0,.13-.05.41-.13.83l-.18.84c-.68.28-1.37.57-2.06.85h0Z"/>
  </g>
</svg>