<?xml version="1.0" encoding="UTF-8"?>
<svg id="Layer_1" xmlns="http://www.w3.org/2000/svg" viewBox="0 0 260 260">
  <defs>
    <style>
      .cls-1 {
        fill: none;
      }
    </style>
  </defs>
  <g>
    <path class="cls-1" d="M91.64,91.61c.11-.06.22-.12.33-.18-.11.06-.22.12-.33.18Z"/>
    <path class="cls-1" d="M94.55,90.34c.1-.03.21-.05.31-.08-.1.02-.2.05-.31.08Z"/>
    <path class="cls-1" d="M91,91.99c.11-.07.23-.14.34-.2-.11.07-.22.13-.34.2Z"/>
    <path class="cls-1" d="M94,90.52c.1-.04.2-.06.31-.1-.1.03-.2.06-.31.1Z"/>
    <path class="cls-1" d="M93.44,90.73c.1-.04.21-.08.31-.12-.1.04-.21.07-.31.12Z"/>
    <path class="cls-1" d="M92.86,90.98c.11-.05.21-.09.32-.14-.11.05-.21.09-.32.14Z"/>
    <path class="cls-1" d="M87.5,94.56c.13-.11.26-.21.39-.32-.13.1-.26.21-.39.32Z"/>
    <path class="cls-1" d="M86.83,95.13s0,0,0,0c.11-.09.21-.18.31-.27-.1.09-.2.17-.31.26Z"/>
    <path class="cls-1" d="M90.34,92.41c.12-.08.23-.15.35-.22-.12.07-.23.15-.35.22Z"/>
    <path class="cls-1" d="M88.25,93.95c.13-.1.25-.2.37-.29-.12.1-.25.19-.37.29Z"/>
    <path class="cls-1" d="M88.97,93.39c.12-.09.24-.18.36-.27-.12.09-.24.18-.36.27Z"/>
    <path class="cls-1" d="M89.67,92.88c.12-.09.24-.17.36-.25-.12.08-.24.16-.36.25Z"/>
    <path class="cls-1" d="M92.25,91.27c.11-.06.22-.11.32-.16-.11.05-.21.1-.32.16Z"/>
    <path class="cls-1" d="M96.12,90.06c.17-.01.33-.02.49-.02-.16,0-.33,0-.49.02Z"/>
    <path class="cls-1" d="M95.09,90.21c.11-.02.21-.04.32-.06-.1.02-.21.03-.32.06Z"/>
    <path class="cls-1" d="M95.61,90.12c.11-.02.22-.03.33-.04-.11.01-.22.02-.33.04Z"/>
    <path class="cls-1" d="M100.46,93.54c0-2.1-1.57-3.5-3.84-3.5-.16,0-.33,0-.49.02-.06,0-.12.01-.17.02-.11.01-.22.02-.33.04-.07,0-.14.02-.2.04-.1.02-.21.03-.32.06-.07.02-.15.04-.23.06-.1.02-.2.05-.31.08-.08.02-.16.05-.24.08-.1.03-.2.06-.31.1-.08.03-.17.06-.26.09-.1.04-.21.07-.31.12-.09.04-.18.08-.27.11-.11.05-.21.09-.32.14-.09.04-.18.09-.28.13-.11.05-.21.1-.32.16-.09.05-.19.1-.29.16-.11.06-.22.12-.33.18-.1.06-.2.12-.3.18-.11.07-.22.13-.34.2-.1.06-.21.13-.31.2-.12.07-.23.15-.35.22-.11.07-.21.15-.32.22-.12.08-.24.16-.36.25-.11.08-.22.16-.34.24-.12.09-.24.18-.36.27-.11.09-.23.18-.35.27-.12.1-.25.19-.37.29-.12.09-.24.19-.36.29-.13.1-.26.21-.39.32-.12.1-.24.21-.37.31-.1.09-.21.18-.31.27-.11.1-.19.24-.22.38l-16.98,79.85h13.73l-.09.43,16.66-77.72c.35-1.75.52-3.32.52-4.54Z"/>
    <path d="M192.74,103.68c.37-1.96.65-3.83.78-5.5-.13.05-.27.1-.42.16-1.42.55-3.46,1.34-5.89,2.31-4.87,1.94-11.36,4.6-17.84,7.31-6.95,2.91-13.89,5.82-18.85,7.89l-13.28,61.75h-.02l-.57,2.64c-.09.44.24.86.69.86h49.85c.33,0,.61-.22.69-.54l.52-2.08c.11-.45-.23-.88-.69-.88h-9.93c-.45,0-.79-.42-.69-.86l15.64-73.06Z"/>
    <path d="M89.33,93.12c.11-.08.22-.17.34-.24-.11.08-.22.16-.34.24Z"/>
    <path d="M88.62,93.66c.12-.09.23-.18.35-.27-.11.09-.23.18-.35.27Z"/>
    <path d="M94.86,90.27c.08-.02.15-.04.23-.06-.07.02-.15.04-.23.06Z"/>
    <path d="M93.75,90.61c.09-.03.17-.07.26-.09-.08.03-.17.06-.26.09Z"/>
    <path d="M87.14,94.87c.12-.1.25-.21.37-.31-.12.1-.24.21-.37.31Z"/>
    <path d="M90.02,92.63c.11-.07.22-.15.32-.22-.11.07-.21.15-.32.22Z"/>
    <path d="M94.31,90.42c.08-.02.16-.05.24-.08-.08.02-.16.05-.24.08Z"/>
    <path d="M87.89,94.24c.12-.1.24-.2.36-.29-.12.09-.24.19-.36.29Z"/>
    <path d="M95.41,90.16c.07-.01.14-.03.2-.04-.07,0-.14.02-.2.04Z"/>
    <path d="M91.97,91.43c.1-.05.19-.11.29-.16-.09.05-.19.1-.29.16Z"/>
    <path d="M86.82,95.14c-.06.05-.12.1-.18.15l-.05.23c.03-.15.11-.28.22-.38Z"/>
    <path d="M93.17,90.84c.09-.04.18-.08.27-.11-.09.04-.18.08-.27.11Z"/>
    <path d="M92.58,91.11c.09-.05.19-.09.28-.13-.09.04-.18.09-.28.13Z"/>
    <path d="M95.94,90.08c.06,0,.12-.01.17-.02-.06,0-.12.01-.17.02Z"/>
    <path d="M91.34,91.79c.1-.06.2-.12.3-.18-.1.06-.2.12-.3.18Z"/>
    <path d="M90.69,92.19c.1-.07.21-.14.31-.2-.1.06-.21.13-.31.2Z"/>
    <polygon points="86.6 95.52 69.55 175.37 69.62 175.37 86.6 95.52 86.6 95.52"/>
    <polygon points="86.6 95.52 86.65 95.29 69.55 175.37 86.6 95.52 86.6 95.52"/>
  </g>
  <path d="M248.79,94.88c-3-6.29-8.26-11.26-14.82-13.67-3.36-1.23-6.93-1.79-10.5-1.79-4.93,0-9.69.87-14.36,2.43-2.97,1-5.88,2.19-8.75,3.44-1.49.65-2.96,1.42-4.48,1.97-1.41.51-2.81,1.04-4.21,1.57,0,0,0,0,0,0-3.37-5.69-10.91-9.1-20.94-9.1s-18.57,3.04-29.82,10.94c-.33.23-.77.15-1-.18-5.17-7.6-11.57-10.76-21.44-10.76-9.2,0-18.73,3.2-29.49,10.23-.53.34-1.21-.12-1.08-.74l2.03-9.46c.11-.5-.33-.95-.83-.84-5.46,1.12-15.84,2.04-22.71,2.04h-27.2s-.87-.01-1.14,0c-1.19.03-2.38.15-3.56.33-5.11.78-10,2.84-14.11,5.97-4.18,3.18-7.54,7.38-9.68,12.18-2.19,4.9-3.05,10.32-2.56,15.66.93,10.19,7.09,19.47,16.04,24.4,3.9,2.15,8.16,3.35,12.55,3.73l-7.2,33.81c-.07.33-.36.56-.69.56h-10.56c-.34,0-.63.24-.69.57l-.42,2.08c-.09.44.25.85.69.85h49.97c.33,0,.62-.23.69-.56l1.1-5.16h-.07l8.3-38.89c1.46-.42,2.91-.85,4.36-1.29,3.51-1.07,7-2.19,10.48-3.36l-9.43,43.96-.89,4.45c-.09.44.25.85.69.85h38.12c.33,0,.62-.23.69-.56l2.15-9.87,11.76-55.1c3.14-1.28,6.27-2.57,9.4-3.87,9.44-3.92,18.85-7.92,28.28-11.87,9.17-3.84,18.36-7.72,27.78-10.91,1.04-.35,2.08-.68,3.13-1,.77-.23,1.77-.12,2.51.13,2.19.73,3.03,2.93,3.07,5.07.04,2.07-.38,4.08-.8,6.09-.89,4.2-1.77,8.41-2.66,12.61-1.11,5.24-2.21,10.49-3.32,15.73-.51,2.41-1.01,4.82-1.52,7.22-.48,2.29-.97,4.59-1.45,6.88-.66,3.14-1.46,6.74-3.65,9.22-2.13,2.4-5.58,2.69-8.51,1.8-.55-.17-1.03-.34-1.62-.21-.46.1-.88.35-1.19.7-.71.79-.78,2-.15,2.86.7.96,1.79,1.8,2.76,2.47.99.68,2.05,1.18,3.14,1.66,4.72,2.06,9.72,3.26,14.89,3.13,4.29-.11,8.55-1.05,12.55-2.57,8.63-3.26,16.06-9.1,21.52-16.51,5.57-7.56,9.58-16.45,11.25-25.71,1.42-7.87,1.04-16.3-2.44-23.61ZM31.23,138.69c-2.74-.82-5.34-2.08-7.69-3.7-4.72-3.25-8.41-7.97-10.36-13.37-2.05-5.67-2.2-12-.39-17.75,1.62-5.14,4.75-9.73,8.92-13.14,4.53-3.7,10.18-5.88,16.02-6.19.51-.03,1.02-.07,1.53-.08h9.12c.45,0,.79.42.69.86l-11.62,54.52c-2.07-.13-4.25-.55-6.22-1.14ZM80.15,132.21c-.49.15-.98.29-1.47.44l7.98-37.36c.06-.05.12-.1.18-.15,0,0,0,0,0,0,.1-.09.2-.17.31-.26.12-.1.25-.21.37-.31.13-.11.26-.21.39-.32.12-.1.24-.2.36-.29.13-.1.25-.2.37-.29.12-.09.23-.18.35-.27.12-.09.24-.18.36-.27.11-.08.22-.17.34-.24.12-.09.24-.17.36-.25.11-.07.22-.15.32-.22.12-.08.23-.15.35-.22.1-.07.21-.14.31-.2.11-.07.23-.14.34-.2.1-.06.2-.12.3-.18.11-.06.22-.12.33-.18.1-.05.19-.11.29-.16.11-.06.22-.11.32-.16.09-.05.19-.09.28-.13.11-.05.21-.09.32-.14.09-.04.18-.08.27-.11.1-.04.21-.08.31-.12.09-.03.17-.07.26-.09.1-.04.2-.06.31-.1.08-.02.16-.05.24-.08.1-.03.21-.05.31-.08.08-.02.15-.04.23-.06.11-.02.21-.04.32-.06.07-.01.14-.03.2-.04.11-.02.22-.03.33-.04.06,0,.12-.01.17-.02.17-.01.33-.02.49-.02,2.27,0,3.84,1.4,3.84,3.5,0,1.22-.17,2.8-.52,4.54l-6.4,29.83c-4.44,1.51-8.9,2.95-13.39,4.29ZM138.95,110.61c-.76.31-1.52.62-2.29.93l3.43-16.04c.03-.14.1-.27.2-.36,3.62-3.57,7.23-5.26,10.51-5.26,2.62,0,4.19,1.4,4.19,3.67,0,.87-.35,2.8-.87,5.59l-1.22,5.68c-4.64,1.94-9.29,3.88-13.95,5.79Z"/>
</svg>